<mxfile host="app.diagrams.net" modified="2023-06-04T03:37:52.042Z" agent="Mozilla/5.0 (Windows NT 10.0; Win64; x64) AppleWebKit/537.36 (KHTML, like Gecko) Chrome/113.0.0.0 Safari/537.36 Edg/113.0.1774.57" etag="GEBrgq82szT0Pzf72lGn" version="21.3.7" type="github">
  <diagram id="C5RBs43oDa-KdzZeNtuy" name="Page-1">
    <mxGraphModel dx="738" dy="1115" grid="1" gridSize="10" guides="1" tooltips="1" connect="1" arrows="1" fold="1" page="1" pageScale="1" pageWidth="827" pageHeight="1169" math="0" shadow="0">
      <root>
        <mxCell id="WIyWlLk6GJQsqaUBKTNV-0" />
        <mxCell id="WIyWlLk6GJQsqaUBKTNV-1" parent="WIyWlLk6GJQsqaUBKTNV-0" />
        <mxCell id="zkfFHV4jXpPFQw0GAbJ--0" value="Article" style="swimlane;fontStyle=0;align=center;verticalAlign=top;childLayout=stackLayout;horizontal=1;startSize=26;horizontalStack=0;resizeParent=1;resizeLast=0;collapsible=1;marginBottom=0;rounded=0;shadow=0;strokeWidth=1;" parent="WIyWlLk6GJQsqaUBKTNV-1" vertex="1">
          <mxGeometry x="220" y="120" width="160" height="138" as="geometry">
            <mxRectangle x="230" y="140" width="160" height="26" as="alternateBounds" />
          </mxGeometry>
        </mxCell>
        <mxCell id="zkfFHV4jXpPFQw0GAbJ--1" value="Name" style="text;align=left;verticalAlign=top;spacingLeft=4;spacingRight=4;overflow=hidden;rotatable=0;points=[[0,0.5],[1,0.5]];portConstraint=eastwest;" parent="zkfFHV4jXpPFQw0GAbJ--0" vertex="1">
          <mxGeometry y="26" width="160" height="26" as="geometry" />
        </mxCell>
        <mxCell id="zkfFHV4jXpPFQw0GAbJ--4" value="" style="line;html=1;strokeWidth=1;align=left;verticalAlign=middle;spacingTop=-1;spacingLeft=3;spacingRight=3;rotatable=0;labelPosition=right;points=[];portConstraint=eastwest;" parent="zkfFHV4jXpPFQw0GAbJ--0" vertex="1">
          <mxGeometry y="52" width="160" height="8" as="geometry" />
        </mxCell>
        <mxCell id="zkfFHV4jXpPFQw0GAbJ--5" value="+Articulo()&#xa;+all getter&#xa;+setName" style="text;align=left;verticalAlign=top;spacingLeft=4;spacingRight=4;overflow=hidden;rotatable=0;points=[[0,0.5],[1,0.5]];portConstraint=eastwest;" parent="zkfFHV4jXpPFQw0GAbJ--0" vertex="1">
          <mxGeometry y="60" width="160" height="70" as="geometry" />
        </mxCell>
        <mxCell id="zkfFHV4jXpPFQw0GAbJ--6" value="Product" style="swimlane;fontStyle=0;align=center;verticalAlign=top;childLayout=stackLayout;horizontal=1;startSize=26;horizontalStack=0;resizeParent=1;resizeLast=0;collapsible=1;marginBottom=0;rounded=0;shadow=0;strokeWidth=1;" parent="WIyWlLk6GJQsqaUBKTNV-1" vertex="1">
          <mxGeometry x="120" y="360" width="170" height="150" as="geometry">
            <mxRectangle x="130" y="380" width="160" height="26" as="alternateBounds" />
          </mxGeometry>
        </mxCell>
        <mxCell id="zkfFHV4jXpPFQw0GAbJ--8" value="marca : String;&#xa;price : Double;&#xa;volume : Int;" style="text;align=left;verticalAlign=top;spacingLeft=4;spacingRight=4;overflow=hidden;rotatable=0;points=[[0,0.5],[1,0.5]];portConstraint=eastwest;rounded=0;shadow=0;html=0;" parent="zkfFHV4jXpPFQw0GAbJ--6" vertex="1">
          <mxGeometry y="26" width="170" height="54" as="geometry" />
        </mxCell>
        <mxCell id="zkfFHV4jXpPFQw0GAbJ--9" value="" style="line;html=1;strokeWidth=1;align=left;verticalAlign=middle;spacingTop=-1;spacingLeft=3;spacingRight=3;rotatable=0;labelPosition=right;points=[];portConstraint=eastwest;" parent="zkfFHV4jXpPFQw0GAbJ--6" vertex="1">
          <mxGeometry y="80" width="170" height="8" as="geometry" />
        </mxCell>
        <mxCell id="zkfFHV4jXpPFQw0GAbJ--11" value="+contructor with super(name)&#xa;+all setter" style="text;align=left;verticalAlign=top;spacingLeft=4;spacingRight=4;overflow=hidden;rotatable=0;points=[[0,0.5],[1,0.5]];portConstraint=eastwest;" parent="zkfFHV4jXpPFQw0GAbJ--6" vertex="1">
          <mxGeometry y="88" width="170" height="42" as="geometry" />
        </mxCell>
        <mxCell id="zkfFHV4jXpPFQw0GAbJ--12" value="" style="endArrow=block;endSize=10;endFill=0;shadow=0;strokeWidth=1;rounded=0;edgeStyle=elbowEdgeStyle;elbow=vertical;" parent="WIyWlLk6GJQsqaUBKTNV-1" source="zkfFHV4jXpPFQw0GAbJ--6" target="zkfFHV4jXpPFQw0GAbJ--0" edge="1">
          <mxGeometry width="160" relative="1" as="geometry">
            <mxPoint x="200" y="203" as="sourcePoint" />
            <mxPoint x="200" y="203" as="targetPoint" />
          </mxGeometry>
        </mxCell>
        <mxCell id="zkfFHV4jXpPFQw0GAbJ--13" value="Package" style="swimlane;fontStyle=0;align=center;verticalAlign=top;childLayout=stackLayout;horizontal=1;startSize=26;horizontalStack=0;resizeParent=1;resizeLast=0;collapsible=1;marginBottom=0;rounded=0;shadow=0;strokeWidth=1;" parent="WIyWlLk6GJQsqaUBKTNV-1" vertex="1">
          <mxGeometry x="330" y="360" width="170" height="160" as="geometry">
            <mxRectangle x="340" y="380" width="170" height="26" as="alternateBounds" />
          </mxGeometry>
        </mxCell>
        <mxCell id="zkfFHV4jXpPFQw0GAbJ--14" value="marca : String;&#xa;prive : Double;&#xa;volume : Int;" style="text;align=left;verticalAlign=top;spacingLeft=4;spacingRight=4;overflow=hidden;rotatable=0;points=[[0,0.5],[1,0.5]];portConstraint=eastwest;" parent="zkfFHV4jXpPFQw0GAbJ--13" vertex="1">
          <mxGeometry y="26" width="170" height="54" as="geometry" />
        </mxCell>
        <mxCell id="zkfFHV4jXpPFQw0GAbJ--15" value="" style="line;html=1;strokeWidth=1;align=left;verticalAlign=middle;spacingTop=-1;spacingLeft=3;spacingRight=3;rotatable=0;labelPosition=right;points=[];portConstraint=eastwest;" parent="zkfFHV4jXpPFQw0GAbJ--13" vertex="1">
          <mxGeometry y="80" width="170" height="8" as="geometry" />
        </mxCell>
        <mxCell id="FidmBIuI2qitcQr4AtnM-1" value="+contructor with super(name)&#xa;+all setter&#xa;//price brand volume(custom)&#xa;+getCantidadProductos" style="text;align=left;verticalAlign=top;spacingLeft=4;spacingRight=4;overflow=hidden;rotatable=0;points=[[0,0.5],[1,0.5]];portConstraint=eastwest;" vertex="1" parent="zkfFHV4jXpPFQw0GAbJ--13">
          <mxGeometry y="88" width="170" height="72" as="geometry" />
        </mxCell>
        <mxCell id="zkfFHV4jXpPFQw0GAbJ--16" value="" style="endArrow=block;endSize=10;endFill=0;shadow=0;strokeWidth=1;rounded=0;edgeStyle=elbowEdgeStyle;elbow=vertical;" parent="WIyWlLk6GJQsqaUBKTNV-1" source="zkfFHV4jXpPFQw0GAbJ--13" target="zkfFHV4jXpPFQw0GAbJ--0" edge="1">
          <mxGeometry width="160" relative="1" as="geometry">
            <mxPoint x="210" y="373" as="sourcePoint" />
            <mxPoint x="310" y="271" as="targetPoint" />
          </mxGeometry>
        </mxCell>
        <mxCell id="FidmBIuI2qitcQr4AtnM-3" value="&lt;&lt;interface&gt;&gt;&#xa;Politicas" style="swimlane;fontStyle=2;align=center;verticalAlign=top;childLayout=stackLayout;horizontal=1;startSize=40;horizontalStack=0;resizeParent=1;resizeLast=0;collapsible=1;marginBottom=0;rounded=0;shadow=0;strokeWidth=1;" vertex="1" parent="WIyWlLk6GJQsqaUBKTNV-1">
          <mxGeometry x="320" y="550" width="160" height="84" as="geometry">
            <mxRectangle x="230" y="140" width="160" height="26" as="alternateBounds" />
          </mxGeometry>
        </mxCell>
        <mxCell id="FidmBIuI2qitcQr4AtnM-6" value="+sePublicita(condicion)&#xa;ifÂ " style="text;align=left;verticalAlign=top;spacingLeft=4;spacingRight=4;overflow=hidden;rotatable=0;points=[[0,0.5],[1,0.5]];portConstraint=eastwest;" vertex="1" parent="FidmBIuI2qitcQr4AtnM-3">
          <mxGeometry y="40" width="160" height="40" as="geometry" />
        </mxCell>
        <mxCell id="FidmBIuI2qitcQr4AtnM-7" value="politicaPrecio" style="swimlane;whiteSpace=wrap;html=1;" vertex="1" parent="WIyWlLk6GJQsqaUBKTNV-1">
          <mxGeometry x="10" y="740" width="130" height="80" as="geometry" />
        </mxCell>
        <mxCell id="FidmBIuI2qitcQr4AtnM-8" value="politicaVolumen" style="swimlane;whiteSpace=wrap;html=1;" vertex="1" parent="WIyWlLk6GJQsqaUBKTNV-1">
          <mxGeometry x="150" y="740" width="140" height="80" as="geometry" />
        </mxCell>
        <mxCell id="FidmBIuI2qitcQr4AtnM-9" value="politicaEsMarca" style="swimlane;whiteSpace=wrap;html=1;" vertex="1" parent="WIyWlLk6GJQsqaUBKTNV-1">
          <mxGeometry x="300" y="740" width="100" height="80" as="geometry" />
        </mxCell>
        <mxCell id="FidmBIuI2qitcQr4AtnM-11" value="" style="edgeStyle=elbowEdgeStyle;elbow=vertical;endArrow=classic;html=1;curved=0;rounded=0;endSize=8;startSize=8;" edge="1" parent="WIyWlLk6GJQsqaUBKTNV-1">
          <mxGeometry width="50" height="50" relative="1" as="geometry">
            <mxPoint x="80" y="740" as="sourcePoint" />
            <mxPoint x="360" y="641" as="targetPoint" />
            <Array as="points">
              <mxPoint x="230" y="690" />
            </Array>
          </mxGeometry>
        </mxCell>
        <mxCell id="FidmBIuI2qitcQr4AtnM-13" value="" style="shape=partialRectangle;whiteSpace=wrap;html=1;bottom=0;top=0;fillColor=none;" vertex="1" parent="WIyWlLk6GJQsqaUBKTNV-1">
          <mxGeometry x="240" y="690" width="120" height="50" as="geometry" />
        </mxCell>
        <mxCell id="FidmBIuI2qitcQr4AtnM-14" value="" style="edgeStyle=elbowEdgeStyle;elbow=vertical;endArrow=classic;html=1;curved=0;rounded=0;endSize=8;startSize=8;" edge="1" parent="WIyWlLk6GJQsqaUBKTNV-1">
          <mxGeometry width="50" height="50" relative="1" as="geometry">
            <mxPoint x="700" y="740" as="sourcePoint" />
            <mxPoint x="430" y="640" as="targetPoint" />
            <Array as="points">
              <mxPoint x="570" y="690" />
            </Array>
          </mxGeometry>
        </mxCell>
        <mxCell id="FidmBIuI2qitcQr4AtnM-15" value="" style="shape=partialRectangle;whiteSpace=wrap;html=1;bottom=0;top=0;fillColor=none;" vertex="1" parent="WIyWlLk6GJQsqaUBKTNV-1">
          <mxGeometry x="470" y="690" width="120" height="50" as="geometry" />
        </mxCell>
        <mxCell id="FidmBIuI2qitcQr4AtnM-16" value="&lt;blockquote style=&quot;margin: 0 0 0 40px; border: none; padding: 0px;&quot;&gt;LOGICAS&lt;/blockquote&gt;" style="text;html=1;align=center;verticalAlign=middle;resizable=0;points=[];autosize=1;strokeColor=none;fillColor=none;" vertex="1" parent="WIyWlLk6GJQsqaUBKTNV-1">
          <mxGeometry x="500" y="660" width="120" height="30" as="geometry" />
        </mxCell>
        <mxCell id="FidmBIuI2qitcQr4AtnM-17" value="politicaNegada" style="swimlane;whiteSpace=wrap;html=1;" vertex="1" parent="WIyWlLk6GJQsqaUBKTNV-1">
          <mxGeometry x="430" y="740" width="100" height="80" as="geometry" />
        </mxCell>
        <mxCell id="FidmBIuI2qitcQr4AtnM-18" value="politicaAnd" style="swimlane;whiteSpace=wrap;html=1;" vertex="1" parent="WIyWlLk6GJQsqaUBKTNV-1">
          <mxGeometry x="538" y="740" width="100" height="80" as="geometry" />
        </mxCell>
        <mxCell id="FidmBIuI2qitcQr4AtnM-19" value="politicaOr" style="swimlane;whiteSpace=wrap;html=1;" vertex="1" parent="WIyWlLk6GJQsqaUBKTNV-1">
          <mxGeometry x="650" y="740" width="100" height="80" as="geometry" />
        </mxCell>
      </root>
    </mxGraphModel>
  </diagram>
</mxfile>
